<?xml version="1.0" encoding="utf-8"?>
<!-- Generator: Adobe Illustrator 18.0.0, SVG Export Plug-In . SVG Version: 6.00 Build 0)  -->
<!DOCTYPE svg PUBLIC "-//W3C//DTD SVG 1.1//EN" "http://www.w3.org/Graphics/SVG/1.1/DTD/svg11.dtd">
<svg version="1.1" id="Слой_1" xmlns="http://www.w3.org/2000/svg" xmlns:xlink="http://www.w3.org/1999/xlink" x="0px" y="0px"
	 viewBox="0 0 200 200" enable-background="new 0 0 200 200" xml:space="preserve">
<g>
	<g>
		<path fill="#4F4F4F" stroke="#4F4F4F" stroke-miterlimit="10" d="M167.9,101.4l-10.6-21.3c-0.9-1.9-1.2-4.1-0.8-6.1l2.3-11.4
			c0-0.2,0.1-0.4,0.1-0.6c0-29.1-23.7-52.8-52.8-52.8H93.5c-32.6,0-59,26.5-59,59c0,16.3,3.9,29.8,7.7,42.8
			c3.9,13.4,7.9,27.2,7.9,44.5c0,1,0.5,2,1.4,2.5l50.1,30.6c1.1,0.7,2.4,1,3.6,1c1.2,0,2.3-0.3,3.4-0.9c2.2-1.2,3.5-3.5,3.5-6v-11.6
			c0-8.7,7.1-15.8,15.8-15.8h10.3c7.9,0,14.7-6.2,15.3-14.1l2-24.2l7.6-3c2.4-0.9,4.3-2.9,5.2-5.2
			C169.2,106.4,169.1,103.7,167.9,101.4L167.9,101.4z M162.9,106.7c-0.3,0.9-1,1.6-1.9,1.9l-9.3,3.7c-1,0.4-1.7,1.4-1.8,2.5l-2.2,26
			c-0.4,4.9-4.6,8.8-9.5,8.8h-10.3c-11.9,0-21.6,9.7-21.6,21.6v11.6c0,0.5-0.3,0.8-0.5,0.9c-0.2,0.1-0.6,0.3-1.1,0l-48.7-29.7
			c-0.2-17.4-4.2-31.1-8.1-44.5c-3.8-13.2-7.5-25.7-7.5-41.2c0-29.3,23.9-53.2,53.2-53.2H106c25.8,0,46.8,20.9,47,46.7l-2.2,11.1
			c-0.7,3.3-0.2,6.9,1.3,9.9l10.6,21.3C163.1,104.9,163.2,105.8,162.9,106.7L162.9,106.7z M162.9,106.7"/>
	</g>
	<path fill="#4F4F4F" d="M102.9,65c1.6,0,2.9-1.3,2.9-2.9c0-1.6-1.3-2.9-2.9-2.9h-3.5c-0.5-2.9-1.6-5.6-3.3-7.9l2.5-2.5
		c1.1-1.1,1.1-3,0-4.1c-1.1-1.1-3-1.1-4.1,0l-2.5,2.5c-2.3-1.7-5-2.8-7.9-3.3v-3.5c0-1.6-1.3-2.9-2.9-2.9c-1.6,0-2.9,1.3-2.9,2.9
		v3.5c-2.9,0.5-5.6,1.6-7.9,3.3l-2.5-2.5c-1.1-1.1-3-1.1-4.1,0c-1.1,1.1-1.1,3,0,4.1l2.5,2.5c-1.7,2.3-2.8,5-3.3,7.9h-3.5
		c-1.6,0-2.9,1.3-2.9,2.9c0,1.6,1.3,2.9,2.9,2.9h3.5c0.5,2.9,1.6,5.6,3.3,7.9l-2.5,2.5c-1.1,1.1-1.1,3,0,4.1
		c0.6,0.6,1.3,0.9,2.1,0.9c0.7,0,1.5-0.3,2.1-0.9l2.5-2.5c2.3,1.7,5,2.8,7.9,3.3v3.5c0,1.6,1.3,2.9,2.9,2.9c1.6,0,2.9-1.3,2.9-2.9
		v-3.5c2.9-0.5,5.6-1.6,7.9-3.3l2.5,2.5c0.6,0.6,1.3,0.9,2.1,0.9c0.7,0,1.5-0.3,2.1-0.9c1.1-1.1,1.1-3,0-4.1l-2.5-2.5
		c1.7-2.3,2.8-5,3.3-7.9H102.9z M81.1,74.7c-7,0-12.7-5.7-12.7-12.7c0-7,5.7-12.7,12.7-12.7c7,0,12.7,5.7,12.7,12.7
		C93.7,69,88.1,74.7,81.1,74.7L81.1,74.7z M81.1,74.7"/>
	<path fill="#4F4F4F" stroke="#4F4F4F" stroke-miterlimit="10" d="M81.1,56.4c-3.1,0-5.6,2.5-5.6,5.6c0,3.1,2.5,5.7,5.6,5.7
		c3.1,0,5.7-2.5,5.7-5.7C86.7,58.9,84.2,56.4,81.1,56.4L81.1,56.4z M81.1,62.2c-0.1,0-0.2-0.1-0.2-0.2c0-0.1,0.1-0.2,0.2-0.2
		c0.1,0,0.2,0.1,0.2,0.2C81.3,62.2,81.2,62.2,81.1,62.2L81.1,62.2z M81.1,62.2"/>
	<path fill="#4F4F4F" d="M131,46.7h-0.5c-0.3-1.2-0.8-2.4-1.4-3.4l0.4-0.4c1.1-1.1,1.1-3,0-4.1c-1.1-1.1-3-1.1-4.1,0l-0.4,0.4
		c-1.1-0.6-2.2-1.1-3.4-1.4v-0.5c0-1.6-1.3-2.9-2.9-2.9c-1.6,0-2.9,1.3-2.9,2.9v0.5c-1.2,0.3-2.4,0.8-3.4,1.4l-0.4-0.4
		c-1.1-1.1-3-1.1-4.1,0c-1.1,1.1-1.1,3,0,4.1l0.4,0.4c-0.6,1.1-1.1,2.2-1.4,3.4H106c-1.6,0-2.9,1.3-2.9,2.9c0,1.6,1.3,2.9,2.9,2.9
		h0.5c0.3,1.2,0.8,2.4,1.4,3.4l-0.4,0.4c-1.1,1.1-1.1,3,0,4.1c0.6,0.6,1.3,0.9,2.1,0.9c0.7,0,1.5-0.3,2.1-0.9l0.4-0.4
		c1.1,0.6,2.2,1.1,3.4,1.4V62c0,1.6,1.3,2.9,2.9,2.9c1.6,0,2.9-1.3,2.9-2.9v-0.5c1.2-0.3,2.4-0.8,3.4-1.4l0.4,0.4
		c0.6,0.6,1.3,0.9,2.1,0.9c0.7,0,1.5-0.3,2.1-0.9c1.1-1.1,1.1-3,0-4.1l-0.4-0.4c0.6-1.1,1.1-2.2,1.4-3.4h0.5c1.6,0,2.9-1.3,2.9-2.9
		C133.9,48,132.6,46.7,131,46.7L131,46.7z M118.5,56c-3.5,0-6.4-2.9-6.4-6.4c0-3.5,2.9-6.4,6.4-6.4c3.5,0,6.4,2.9,6.4,6.4
		C124.9,53.1,122,56,118.5,56L118.5,56z M118.5,56"/>
	<path fill="#4F4F4F" d="M126,74.6c-0.8-1.4-2.6-1.9-4-1.1l-0.6,0.3c-0.9-0.8-2-1.4-3.1-1.8v-0.7c0-1.6-1.3-2.9-2.9-2.9
		c-1.6,0-2.9,1.3-2.9,2.9v0.7c-1.2,0.4-2.2,1-3.1,1.8l-0.6-0.3c-1.4-0.8-3.2-0.3-4,1.1c-0.8,1.4-0.3,3.2,1.1,4l0.6,0.3
		c-0.1,0.6-0.2,1.2-0.2,1.8c0,0.6,0.1,1.2,0.2,1.8l-0.6,0.3c-1.4,0.8-1.9,2.6-1.1,4c0.5,0.9,1.5,1.5,2.5,1.5c0.5,0,1-0.1,1.5-0.4
		l0.6-0.3c0.9,0.8,2,1.4,3.1,1.8v0.7c0,1.6,1.3,2.9,2.9,2.9c1.6,0,2.9-1.3,2.9-2.9v-0.7c1.2-0.4,2.2-1,3.1-1.8L122,88
		c0.5,0.3,1,0.4,1.5,0.4c1,0,2-0.5,2.5-1.5c0.8-1.4,0.3-3.2-1.1-4l-0.6-0.3c0.1-0.6,0.2-1.2,0.2-1.8c0-0.6-0.1-1.2-0.2-1.8l0.6-0.3
		C126.3,77.8,126.8,76,126,74.6L126,74.6z M112.1,80.8c0-1.8,1.5-3.3,3.3-3.3c1.8,0,3.3,1.5,3.3,3.3c0,1.8-1.5,3.3-3.3,3.3
		C113.5,84.1,112.1,82.6,112.1,80.8L112.1,80.8z M112.1,80.8"/>
</g>
</svg>
