<?xml version="1.0" encoding="utf-8"?>
<!-- Generator: Adobe Illustrator 18.0.0, SVG Export Plug-In . SVG Version: 6.00 Build 0)  -->
<!DOCTYPE svg PUBLIC "-//W3C//DTD SVG 1.1//EN" "http://www.w3.org/Graphics/SVG/1.1/DTD/svg11.dtd">
<svg version="1.1" id="Слой_1" xmlns="http://www.w3.org/2000/svg" xmlns:xlink="http://www.w3.org/1999/xlink" x="0px" y="0px"
	 viewBox="0 0 200 200" enable-background="new 0 0 200 200" xml:space="preserve">
<path fill="#4F4F4F" d="M-99.5,57.7l-38.4-38.4c-2.4-2.4-5.7-3.8-9.1-3.8c-3.4,0-6.7,1.3-9.1,3.8l-9,9c-1.4,1.4-2.4,3-3,4.8
	l-42.2-7.6l0,0c-19-3.8-37.5,8.6-41.3,27.6l-1.9,9.7c-2.3,10.7,4.6,21.1,15.3,23.2s21.1-4.8,23.2-15.4l1.2-5.9l18.9,1.7l49.4,49.4
	l9,9c1.8,1.8,1.8,4.8,0,6.6s-4.8,1.8-6.6,0l-24-24c-1.7-1.7-4.4-1.7-6.1,0c-1.7,1.7-1.7,4.4,0,6.1l24,24c0.9,0.9,1.4,2,1.4,3.3
	c0,1.2-0.5,2.4-1.4,3.3c-1.8,1.8-4.8,1.8-6.6,0l-24-24c-1.7-1.7-4.4-1.7-6.1,0c-1.7,1.7-1.7,4.4,0,6.1l24,24c1.8,1.8,1.8,4.8,0,6.6
	c-0.9,0.9-2,1.4-3.3,1.4c-1.2,0-2.4-0.5-3.3-1.4l-24-24c-1.7-1.7-4.4-1.7-6.1,0c-1.7,1.7-1.7,4.4,0,6.1l24,24c1.8,1.8,1.8,4.8,0,6.6
	c-1.8,1.8-4.8,1.8-6.6,0l-95.9-96.4c-1.7-1.7-4.4-1.7-6.1,0c-1.7,1.7-1.7,4.4,0,6.1l23.4,23.4l-6.7,6.7c-2.2,2.2-3.4,5.1-3.4,8.2
	s1.2,6,3.4,8.2l2.2,2.2c1.9,1.9,4.4,3.1,7.1,3.4c0.3,2.7,1.4,5.2,3.4,7.1l2.2,2.2c2,2,4.5,3.1,7.1,3.3c0.3,2.7,1.4,5.2,3.4,7.1
	l2.2,2.2c1.9,1.9,4.4,3.1,7.1,3.4c0.3,2.7,1.4,5.2,3.4,7.1l2.2,2.2c2.3,2.3,5.3,3.4,8.2,3.4c3,0,6-1.1,8.2-3.4l6.7-6.7l16.1,16.1
	c2.5,2.5,5.8,3.9,9.3,3.9s6.8-1.4,9.3-3.9c2.4-2.4,3.7-5.5,3.8-8.8c3.3-0.1,6.4-1.5,8.8-3.8c2.4-2.4,3.7-5.6,3.8-8.8
	c3.2-0.1,6.4-1.4,8.8-3.8c2.4-2.4,3.7-5.6,3.8-8.8c3.2-0.1,6.4-1.4,8.8-3.8c5.2-5.2,5.2-13.5,0-18.7l-5.9-5.9l21.9-21.9l15.1-15.1
	C-94.5,70.9-94.5,62.8-99.5,57.7L-99.5,57.7z M-260.4,119.7c-1.2-1.2-1.2-3.2,0-4.4l6.3-6.3l6.6,6.6l-6.3,6.3
	c-1.2,1.2-3.2,1.2-4.4,0L-260.4,119.7z M-247.7,132.4c-1.2-1.2-1.2-3.2,0-4.4l6.3-6.3l6.6,6.6l-6.3,6.3c-1.2,1.2-3.2,1.2-4.4,0
	L-247.7,132.4z M-235.1,145c-0.6-0.6-0.9-1.4-0.9-2.2s0.3-1.6,0.9-2.2l6.3-6.3l6.6,6.6l-6.3,6.3c-1.2,1.2-3.2,1.2-4.4,0L-235.1,145z
	 M-215.9,159.8c-1.2,1.2-3.2,1.2-4.4,0l-2.2-2.2c-1.2-1.2-1.2-3.2,0-4.4l6.3-6.3l6.6,6.6L-215.9,159.8z M-142.4,106.7l-47.5-47.5
	c-0.7-0.7-1.7-1.1-2.7-1.2l-24.3-2.1c-0.1,0-0.3,0-0.4,0c-2,0-3.8,1.4-4.2,3.4l-1.9,9.7c-1.2,6-7.1,10-13.2,8.7
	c-2.9-0.6-5.4-2.3-7.1-4.8s-2.2-5.5-1.6-8.4l1.9-9.7c3-14.4,17-23.7,31.4-20.8h0.1l41.6,7.4l46.6,46.6L-142.4,106.7z M-105.6,69.9
	L-117.7,82l-41.4-41.4c-0.8-0.8-1.3-1.9-1.3-3s0.4-2.2,1.3-3l9-9c0.8-0.8,1.9-1.3,3-1.3s2.2,0.4,3,1.3l38.4,38.4
	c0.8,0.8,1.3,1.9,1.3,3C-104.3,68-104.8,69.1-105.6,69.9L-105.6,69.9z"/>
<g>
	<g>
		<path fill="none" stroke="#4F4F4F" stroke-width="7" stroke-miterlimit="10" d="M73.1,87.9c1.5,9.9,9.2,22.6,21.8,27.1
			c5.2,1.8,10.8,1.8,16,0c12.4-4.5,20.3-17.1,21.9-27c1.7-0.1,3.9-2.5,6.2-10.8c3.2-11.4-0.2-13.1-3.1-12.9c0.6-1.6,1-3.2,1.3-4.7
			c4.9-29.7-9.7-30.7-9.7-30.7s-2.4-4.7-8.8-8.2c-4.3-2.5-10.2-4.5-18-3.8c-2.5,0.1-4.9,0.6-7.2,1.4l0,0c-2.9,1-5.5,2.4-7.9,4.1
			c-2.9,1.8-5.7,4.1-8.1,6.7c-3.9,4-7.3,9.1-8.8,15.4c-1.3,4.8-1,9.7,0.1,15.1l0,0c0.3,1.6,0.7,3.1,1.3,4.7
			c-2.9-0.3-6.4,1.4-3.1,12.9C69.2,85.4,71.4,87.8,73.1,87.9z"/>
		<path fill="none" stroke="#4F4F4F" stroke-width="7" stroke-miterlimit="10" d="M160.3,126.8c-17.8-4.5-32.2-14.7-32.2-14.7
			l-11.3,35.6l-2.1,6.7l0-0.1l-1.8,5.7l-5.9-16.9c14.6-20.4-3-20.2-3.9-20.1c-1,0-18.5-0.2-3.9,20.1l-5.9,16.9l-1.8-5.7l0,0.1
			l-2.1-6.7l-11.3-35.6c0,0-14.4,10.2-32.2,14.7c-13.2,3.4-13.9,18.7-13.4,26.2c0,0,0.8,10.3,1.5,14.8c0,0,25.9,16.8,69.2,16.8
			c43.3,0,69.2-16.8,69.2-16.8c0.8-4.5,1.5-14.8,1.5-14.8C174.2,145.5,173.6,130.2,160.3,126.8z"/>
	</g>
</g>
</svg>
