<?xml version="1.0" encoding="utf-8"?>
<!-- Generator: Adobe Illustrator 18.0.0, SVG Export Plug-In . SVG Version: 6.00 Build 0)  -->
<!DOCTYPE svg PUBLIC "-//W3C//DTD SVG 1.1//EN" "http://www.w3.org/Graphics/SVG/1.1/DTD/svg11.dtd">
<svg version="1.1" id="Icons" xmlns="http://www.w3.org/2000/svg" xmlns:xlink="http://www.w3.org/1999/xlink" x="0px" y="0px"
	 viewBox="0 0 32 32" enable-background="new 0 0 32 32" xml:space="preserve">
<g id="params_1_">
	<path fill-rule="evenodd" clip-rule="evenodd" fill="#43B4DD" d="M8.5,6.6V3.8C8.5,2.3,7.2,1,5.7,1C4.1,1,2.9,2.3,2.9,3.8v2.8
		C1.7,7.5,1,8.8,1,10.4s0.7,2.9,1.9,3.7v14.1c0,1.6,1.3,2.8,2.8,2.8c1.6,0,2.8-1.3,2.8-2.8V14.1c1.1-0.9,1.9-2.2,1.9-3.7
		S9.6,7.5,8.5,6.6z M4.8,3.8c0-0.5,0.4-0.9,0.9-0.9c0.5,0,0.9,0.4,0.9,0.9v2C6.3,5.7,6,5.7,5.7,5.7c-0.3,0-0.6,0-0.9,0.1V3.8z
		 M6.6,28.2c0,0.5-0.4,0.9-0.9,0.9c-0.5,0-0.9-0.4-0.9-0.9V15c0.3,0.1,0.6,0.1,0.9,0.1c0.3,0,0.6,0,0.9-0.1V28.2z M8.4,11.2
		c0,0,0,0.1,0,0.1C8.2,11.6,8.1,11.8,8,12c0,0,0,0,0,0c-0.2,0.2-0.4,0.4-0.6,0.6c0,0,0,0,0,0c-0.2,0.2-0.5,0.3-0.7,0.4
		c-0.3,0.1-0.6,0.2-0.9,0.2c-0.3,0-0.6-0.1-0.9-0.2c-0.3-0.1-0.5-0.2-0.7-0.4c0,0,0,0,0,0c-0.2-0.2-0.4-0.4-0.6-0.6c0,0,0,0,0,0
		c-0.2-0.2-0.3-0.4-0.4-0.7c0,0,0-0.1,0-0.1c-0.1-0.3-0.1-0.5-0.1-0.8c0-0.3,0.1-0.5,0.1-0.8c0,0,0-0.1,0-0.1C3.1,9.2,3.3,9,3.4,8.7
		c0,0,0,0,0,0C3.6,8.5,3.8,8.3,4,8.1c0,0,0,0,0,0C4.2,8,4.5,7.8,4.8,7.7C5,7.6,5.4,7.6,5.7,7.6c0.3,0,0.6,0.1,0.9,0.2
		C6.9,7.8,7.1,8,7.4,8.1c0,0,0,0,0,0C7.6,8.3,7.8,8.5,8,8.7c0,0,0,0,0,0C8.1,9,8.2,9.2,8.3,9.4c0,0,0,0.1,0,0.1
		c0.1,0.3,0.1,0.5,0.1,0.8C8.5,10.6,8.4,10.9,8.4,11.2z"/>
	<path fill-rule="evenodd" clip-rule="evenodd" fill="#43B4DD" d="M29.1,6.6V3.8c0-1.6-1.3-2.8-2.8-2.8c-1.6,0-2.8,1.3-2.8,2.8v2.8
		c-1.1,0.9-1.9,2.2-1.9,3.7s0.7,2.9,1.9,3.7v14.1c0,1.6,1.3,2.8,2.8,2.8c1.6,0,2.8-1.3,2.8-2.8V14.1c1.1-0.9,1.9-2.2,1.9-3.7
		S30.3,7.5,29.1,6.6z M25.4,3.8c0-0.5,0.4-0.9,0.9-0.9c0.5,0,0.9,0.4,0.9,0.9v2c-0.3-0.1-0.6-0.1-0.9-0.1c-0.3,0-0.6,0-0.9,0.1V3.8z
		 M27.3,28.2c0,0.5-0.4,0.9-0.9,0.9c-0.5,0-0.9-0.4-0.9-0.9V15c0.3,0.1,0.6,0.1,0.9,0.1c0.3,0,0.6,0,0.9-0.1V28.2z M29,11.2
		c0,0,0,0.1,0,0.1c-0.1,0.2-0.2,0.5-0.4,0.7c0,0,0,0,0,0c-0.2,0.2-0.4,0.4-0.6,0.6c0,0,0,0,0,0c-0.2,0.2-0.5,0.3-0.7,0.4
		c-0.3,0.1-0.6,0.2-0.9,0.2c-0.3,0-0.6-0.1-0.9-0.2c-0.3-0.1-0.5-0.2-0.7-0.4c0,0,0,0,0,0c-0.2-0.2-0.4-0.4-0.6-0.6c0,0,0,0,0,0
		c-0.2-0.2-0.3-0.4-0.4-0.7c0,0,0-0.1,0-0.1c-0.1-0.3-0.1-0.5-0.1-0.8c0-0.3,0.1-0.5,0.1-0.8c0,0,0-0.1,0-0.1
		C23.8,9.2,23.9,9,24,8.7c0,0,0,0,0,0c0.2-0.2,0.4-0.4,0.6-0.6c0,0,0,0,0,0c0.2-0.2,0.5-0.3,0.7-0.4c0.3-0.1,0.6-0.2,0.9-0.2
		c0.3,0,0.6,0.1,0.9,0.2C27.5,7.8,27.8,8,28,8.1c0,0,0,0,0,0c0.2,0.2,0.4,0.4,0.6,0.6c0,0,0,0,0,0C28.7,9,28.9,9.2,29,9.4
		c0,0,0,0.1,0,0.1c0.1,0.3,0.1,0.5,0.1,0.8C29.1,10.6,29.1,10.9,29,11.2z"/>
	<path fill-rule="evenodd" clip-rule="evenodd" fill="#43B4DD" d="M18.8,17.9V3.8C18.8,2.3,17.6,1,16,1c-1.6,0-2.8,1.3-2.8,2.8v14.1
		c-1.1,0.9-1.9,2.2-1.9,3.7s0.7,2.9,1.9,3.7v2.8c0,1.6,1.3,2.8,2.8,2.8c1.6,0,2.8-1.3,2.8-2.8v-2.8c1.1-0.9,1.9-2.2,1.9-3.7
		S19.9,18.8,18.8,17.9z M15.1,3.8c0-0.5,0.4-0.9,0.9-0.9c0.5,0,0.9,0.4,0.9,0.9V17c-0.3-0.1-0.6-0.1-0.9-0.1c-0.3,0-0.6,0-0.9,0.1
		V3.8z M16.9,28.2c0,0.5-0.4,0.9-0.9,0.9c-0.5,0-0.9-0.4-0.9-0.9v-2c0.3,0.1,0.6,0.1,0.9,0.1c0.3,0,0.6,0,0.9-0.1V28.2z M18.7,22.4
		c0,0,0,0.1,0,0.1c-0.1,0.2-0.2,0.5-0.4,0.7c0,0,0,0,0,0c-0.2,0.2-0.4,0.4-0.6,0.6c0,0,0,0,0,0c-0.2,0.2-0.5,0.3-0.7,0.4
		c-0.3,0.1-0.6,0.2-0.9,0.2c-0.3,0-0.6-0.1-0.9-0.2c-0.3-0.1-0.5-0.2-0.7-0.4c0,0,0,0,0,0c-0.2-0.2-0.4-0.4-0.6-0.6c0,0,0,0,0,0
		c-0.2-0.2-0.3-0.4-0.4-0.7c0,0,0-0.1,0-0.1c-0.1-0.3-0.1-0.5-0.1-0.8c0-0.3,0.1-0.5,0.1-0.8c0,0,0-0.1,0-0.1
		c0.1-0.2,0.2-0.5,0.4-0.7c0,0,0,0,0,0c0.2-0.2,0.4-0.4,0.6-0.6c0,0,0,0,0,0c0.2-0.2,0.5-0.3,0.7-0.4c0.3-0.1,0.6-0.2,0.9-0.2
		c0.3,0,0.6,0.1,0.9,0.2c0.3,0.1,0.5,0.2,0.7,0.4c0,0,0,0,0,0c0.2,0.2,0.4,0.4,0.6,0.6c0,0,0,0,0,0c0.2,0.2,0.3,0.4,0.4,0.7
		c0,0,0,0.1,0,0.1c0.1,0.3,0.1,0.5,0.1,0.8C18.8,21.9,18.8,22.2,18.7,22.4z"/>
</g>
</svg>
