<?xml version="1.0" encoding="utf-8"?>
<!-- Generator: Adobe Illustrator 18.0.0, SVG Export Plug-In . SVG Version: 6.00 Build 0)  -->
<!DOCTYPE svg PUBLIC "-//W3C//DTD SVG 1.1//EN" "http://www.w3.org/Graphics/SVG/1.1/DTD/svg11.dtd">
<svg version="1.1" id="Icons" xmlns="http://www.w3.org/2000/svg" xmlns:xlink="http://www.w3.org/1999/xlink" x="0px" y="0px"
	 viewBox="0 0 32 32" enable-background="new 0 0 32 32" xml:space="preserve">
<g id="bubble_1_">
	<path fill-rule="evenodd" clip-rule="evenodd" fill="#43B4DD" d="M16,7.6c-5.6,0-10.3,3-10.3,6.6c0,0.3,0.2,0.5,0.5,0.5
		c0.3,0,0.5-0.2,0.5-0.5c0-3,4.4-5.6,9.4-5.6c0.3,0,0.5-0.2,0.5-0.5C16.5,7.8,16.3,7.6,16,7.6z"/>
	<path fill-rule="evenodd" clip-rule="evenodd" fill="#43B4DD" d="M16,2.9c-8.3,0-15,5-15,11.3c0,3.9,2.6,7.3,6.6,9.3c0,0,0,0,0,0.1
		c0,1.7-1.3,3.5-1.8,4.4h0c0,0.1-0.1,0.2-0.1,0.3c0,0.5,0.4,0.8,0.8,0.8c0.1,0,0.2,0,0.2,0c2.9-0.5,5.7-3.2,6.3-4
		c0.9,0.1,1.9,0.2,2.9,0.2c8.3,0,15-5,15-11.3S24.3,2.9,16,2.9z M16,23.5c-0.9,0-1.7-0.1-2.6-0.2c-0.1,0-0.2,0-0.3,0
		c-0.6,0-1.1,0.2-1.4,0.7c-0.4,0.5-1.5,1.6-2.9,2.4c0.4-0.8,0.7-1.8,0.7-2.7c0-0.1,0-0.1,0-0.2c0-0.7-0.4-1.3-1-1.7
		c-3.5-1.8-5.5-4.6-5.5-7.6C2.9,9,8.8,4.8,16,4.8c7.2,0,13.1,4.2,13.1,9.4S23.2,23.5,16,23.5z"/>
</g>
</svg>
