<?xml version="1.0" encoding="utf-8"?>
<!-- Generator: Adobe Illustrator 18.0.0, SVG Export Plug-In . SVG Version: 6.00 Build 0)  -->
<!DOCTYPE svg PUBLIC "-//W3C//DTD SVG 1.1//EN" "http://www.w3.org/Graphics/SVG/1.1/DTD/svg11.dtd">
<svg version="1.1" id="Icons" xmlns="http://www.w3.org/2000/svg" xmlns:xlink="http://www.w3.org/1999/xlink" x="0px" y="0px"
	 viewBox="0 0 32 32" enable-background="new 0 0 32 32" xml:space="preserve">
<g id="banknote_1_">
	<path fill-rule="evenodd" clip-rule="evenodd" fill="#43B4DD" d="M30.5,10.9l-9.4-9.4c-0.5-0.5-1.1-0.7-1.8-0.5
		c-0.3,0.1-0.6,0.3-0.9,0.5C18.2,1.8,18.1,2,18,2.3c-0.4,1.4-1.2,2.6-2.2,3.7c-1.5,1.5-3.3,2.5-5.3,3.7c-2.1,1.2-4.3,2.5-6.1,4.3
		c-1.5,1.5-2.6,3.2-3.2,5.2c-0.2,0.7,0,1.4,0.5,1.9l9.4,9.4c0.5,0.5,1.1,0.7,1.8,0.5c0.3-0.1,0.6-0.3,0.9-0.5
		c0.2-0.2,0.4-0.5,0.5-0.8c0.4-1.4,1.2-2.6,2.2-3.7c1.5-1.5,3.3-2.5,5.3-3.7c2.1-1.2,4.3-2.5,6.1-4.3c1.5-1.5,2.6-3.2,3.2-5.2
		C31.1,12.1,30.9,11.4,30.5,10.9z M12.3,29.1C9.1,26,6,22.9,2.9,19.8c2.7-8.6,14.2-8.2,16.9-16.9c3.1,3.1,6.3,6.3,9.4,9.4
		C26.5,20.9,14.9,20.5,12.3,29.1z"/>
	<path fill-rule="evenodd" clip-rule="evenodd" fill="#43B4DD" d="M19.3,15c-0.3-0.3-0.6-0.4-0.9-0.5c-0.3-0.1-0.6-0.1-0.9-0.1
		c-0.3,0-0.6,0.1-0.9,0.2c-0.3,0.1-0.6,0.3-1,0.4c-0.5-0.6-1-1.1-1.5-1.7c0.2-0.2,0.4-0.3,0.7-0.3c0.2,0,0.4,0,0.6,0.1
		c0.2,0,0.4,0.1,0.5,0.1c0.2,0,0.3,0,0.4-0.1c0.1-0.1,0.2-0.3,0.2-0.5c0-0.2-0.1-0.4-0.2-0.5c-0.2-0.2-0.4-0.4-0.7-0.4
		c-0.3,0-0.6,0-0.9,0c-0.3,0.1-0.6,0.2-0.8,0.3c-0.3,0.2-0.5,0.3-0.6,0.5c-0.1-0.1-0.1-0.1-0.2-0.2c-0.1-0.1-0.2-0.1-0.3-0.1
		c-0.1,0-0.2,0-0.3,0.1c-0.1,0.1-0.1,0.2-0.1,0.3c0,0.1,0,0.2,0.1,0.2c0.1,0.1,0.1,0.1,0.2,0.2c-0.2,0.3-0.4,0.6-0.6,0.9
		c-0.2,0.3-0.3,0.7-0.3,1c0,0.3,0,0.6,0.1,0.9c0.1,0.3,0.3,0.5,0.6,0.7c0.4,0.4,1,0.5,1.6,0.5c0.6,0,1.2-0.2,1.9-0.6
		c0.6,0.6,1.1,1.3,1.7,1.9c-0.2,0.2-0.4,0.3-0.6,0.3c-0.2,0-0.3,0-0.5,0c-0.1,0-0.3-0.1-0.4-0.2c-0.1-0.1-0.2-0.2-0.4-0.2
		c-0.1-0.1-0.2-0.1-0.4-0.1c-0.1,0-0.3,0.1-0.4,0.2c-0.2,0.1-0.2,0.3-0.2,0.5c0,0.2,0.1,0.4,0.2,0.5c0.2,0.2,0.4,0.3,0.6,0.4
		c0.3,0.1,0.5,0.2,0.8,0.2c0.3,0,0.6,0,1-0.2c0.3-0.1,0.7-0.4,1-0.7c0.2,0.2,0.3,0.3,0.5,0.5c0.1,0.1,0.2,0.1,0.3,0.1
		c0.1,0,0.2,0,0.3-0.1c0.1-0.1,0.1-0.2,0.1-0.3c0-0.1,0-0.2-0.1-0.2c-0.2-0.1-0.3-0.3-0.5-0.4c0.3-0.3,0.5-0.7,0.7-1.1
		c0.2-0.4,0.3-0.7,0.3-1c0-0.3,0-0.6-0.1-0.9C19.8,15.4,19.6,15.2,19.3,15z M14.1,15.6c-0.3,0-0.5-0.1-0.7-0.3
		c-0.1-0.1-0.1-0.2-0.2-0.3c0-0.1-0.1-0.2,0-0.4c0-0.1,0.1-0.3,0.1-0.4c0.1-0.1,0.2-0.3,0.3-0.4c0.5,0.5,0.9,1,1.4,1.5
		C14.7,15.5,14.4,15.6,14.1,15.6z M18.5,17.5c-0.1,0.2-0.2,0.3-0.3,0.4c-0.5-0.5-1.1-1.1-1.6-1.7c0.1-0.1,0.3-0.1,0.4-0.2
		c0.2-0.1,0.3-0.1,0.5-0.1c0.2,0,0.3,0,0.5,0c0.2,0,0.3,0.1,0.4,0.3c0.1,0.1,0.2,0.3,0.2,0.4c0,0.2,0,0.3,0,0.5
		C18.7,17.2,18.6,17.3,18.5,17.5z"/>
	<path fill-rule="evenodd" clip-rule="evenodd" fill="#43B4DD" d="M14.8,21.8L14.8,21.8c-0.6,0.5-1.2,0.9-1.7,1.5
		c-0.5,0.5-1,1-1.4,1.6l-0.6,0.9l0,0c-0.1,0.2-0.1,0.4,0.1,0.6c0.2,0.2,0.5,0.2,0.7,0c0,0,0.1-0.1,0.1-0.1l0.6-0.8
		c0.4-0.5,0.8-1,1.3-1.5c0.5-0.5,1-0.9,1.6-1.4l0,0c0,0,0,0,0,0c0.2-0.2,0.2-0.5,0-0.7C15.3,21.7,15,21.6,14.8,21.8z"/>
	<path fill-rule="evenodd" clip-rule="evenodd" fill="#43B4DD" d="M18.2,8.2c-0.5,0.5-1,0.9-1.6,1.4c0,0-0.1,0-0.1,0.1
		c-0.2,0.2-0.2,0.5,0,0.7c0.2,0.2,0.5,0.2,0.7,0l0,0c0.6-0.5,1.2-0.9,1.7-1.5c0.5-0.5,1-1,1.4-1.6l0.6-0.9l0,0
		c0.2-0.2,0.2-0.5,0-0.6c-0.2-0.2-0.5-0.2-0.7,0c0,0-0.1,0.1-0.1,0.1l-0.6,0.9C19.1,7.3,18.7,7.8,18.2,8.2z"/>
</g>
</svg>
