<?xml version="1.0" encoding="utf-8"?>
<!-- Generator: Adobe Illustrator 18.0.0, SVG Export Plug-In . SVG Version: 6.00 Build 0)  -->
<!DOCTYPE svg PUBLIC "-//W3C//DTD SVG 1.1//EN" "http://www.w3.org/Graphics/SVG/1.1/DTD/svg11.dtd">
<svg version="1.1" id="Слой_1" xmlns="http://www.w3.org/2000/svg" xmlns:xlink="http://www.w3.org/1999/xlink" x="0px" y="0px"
	 viewBox="0 0 200 200" enable-background="new 0 0 200 200" xml:space="preserve">
<g>
	<g>
		<path fill="#4F4F4F" stroke="#4F4F4F" stroke-miterlimit="10" d="M349.4,109.3L338.8,88c-0.9-1.9-1.2-4.1-0.8-6.1l2.3-11.4
			c0-0.2,0.1-0.4,0.1-0.6c0-29.1-23.7-52.8-52.8-52.8H275c-32.6,0-59,26.5-59,59c0,16.3,3.9,29.8,7.7,42.8
			c3.9,13.4,7.9,27.2,7.9,44.5c0,1,0.5,2,1.4,2.5l50.1,30.6c1.1,0.7,2.4,1,3.6,1c1.2,0,2.3-0.3,3.4-0.9c2.2-1.2,3.5-3.5,3.5-6V179
			c0-8.7,7.1-15.8,15.8-15.8h10.3c7.9,0,14.7-6.2,15.3-14.1l2-24.2l7.6-3c2.4-0.9,4.3-2.9,5.2-5.2
			C350.7,114.2,350.6,111.5,349.4,109.3L349.4,109.3z M344.3,114.5c-0.3,0.9-1,1.6-1.9,1.9l-9.3,3.7c-1,0.4-1.7,1.4-1.8,2.5l-2.2,26
			c-0.4,4.9-4.6,8.8-9.5,8.8h-10.3c-11.9,0-21.6,9.7-21.6,21.6v11.6c0,0.5-0.3,0.8-0.5,0.9c-0.2,0.1-0.6,0.3-1.1,0l-48.7-29.7
			c-0.2-17.4-4.2-31.1-8.1-44.5c-3.8-13.2-7.5-25.7-7.5-41.2c0-29.3,23.9-53.2,53.2-53.2h12.5c25.8,0,46.8,20.9,47,46.7l-2.2,11.1
			c-0.7,3.3-0.2,6.9,1.3,9.9l10.6,21.3C344.6,112.7,344.7,113.7,344.3,114.5L344.3,114.5z M344.3,114.5"/>
	</g>
	<path fill="#4F4F4F" d="M284.4,72.8c1.6,0,2.9-1.3,2.9-2.9c0-1.6-1.3-2.9-2.9-2.9h-3.5c-0.5-2.9-1.6-5.6-3.3-7.9l2.5-2.5
		c1.1-1.1,1.1-3,0-4.1c-1.1-1.1-3-1.1-4.1,0l-2.5,2.5c-2.3-1.7-5-2.8-7.9-3.3V48c0-1.6-1.3-2.9-2.9-2.9c-1.6,0-2.9,1.3-2.9,2.9v3.5
		c-2.9,0.5-5.6,1.6-7.9,3.3l-2.5-2.5c-1.1-1.1-3-1.1-4.1,0c-1.1,1.1-1.1,3,0,4.1l2.5,2.5c-1.7,2.3-2.8,5-3.3,7.9h-3.5
		c-1.6,0-2.9,1.3-2.9,2.9c0,1.6,1.3,2.9,2.9,2.9h3.5c0.5,2.9,1.6,5.6,3.3,7.9l-2.5,2.5c-1.1,1.1-1.1,3,0,4.1
		c0.6,0.6,1.3,0.9,2.1,0.9c0.7,0,1.5-0.3,2.1-0.9l2.5-2.5c2.3,1.7,5,2.8,7.9,3.3v3.5c0,1.6,1.3,2.9,2.9,2.9c1.6,0,2.9-1.3,2.9-2.9
		v-3.5c2.9-0.5,5.6-1.6,7.9-3.3l2.5,2.5c0.6,0.6,1.3,0.9,2.1,0.9s1.5-0.3,2.1-0.9c1.1-1.1,1.1-3,0-4.1l-2.5-2.5
		c1.7-2.3,2.8-5,3.3-7.9H284.4z M262.5,82.5c-7,0-12.7-5.7-12.7-12.7c0-7,5.7-12.7,12.7-12.7c7,0,12.7,5.7,12.7,12.7
		C275.2,76.8,269.5,82.5,262.5,82.5L262.5,82.5z M262.5,82.5"/>
	<path fill="#4F4F4F" stroke="#4F4F4F" stroke-miterlimit="10" d="M262.5,64.2c-3.1,0-5.6,2.5-5.6,5.6c0,3.1,2.5,5.7,5.6,5.7
		c3.1,0,5.7-2.5,5.7-5.7C268.2,66.7,265.7,64.2,262.5,64.2L262.5,64.2z M262.5,70.1c-0.1,0-0.2-0.1-0.2-0.2c0-0.1,0.1-0.2,0.2-0.2
		c0.1,0,0.2,0.1,0.2,0.2C262.7,70,262.7,70.1,262.5,70.1L262.5,70.1z M262.5,70.1"/>
	<path fill="#4F4F4F" d="M312.4,54.5h-0.5c-0.3-1.2-0.8-2.4-1.4-3.4l0.4-0.4c1.1-1.1,1.1-3,0-4.1c-1.1-1.1-3-1.1-4.1,0l-0.4,0.4
		c-1.1-0.6-2.2-1.1-3.4-1.4v-0.5c0-1.6-1.3-2.9-2.9-2.9c-1.6,0-2.9,1.3-2.9,2.9v0.5c-1.2,0.3-2.4,0.8-3.4,1.4l-0.4-0.4
		c-1.1-1.1-3-1.1-4.1,0c-1.1,1.1-1.1,3,0,4.1l0.4,0.4c-0.6,1.1-1.1,2.2-1.4,3.4h-0.5c-1.6,0-2.9,1.3-2.9,2.9c0,1.6,1.3,2.9,2.9,2.9
		h0.5c0.3,1.2,0.8,2.4,1.4,3.4l-0.4,0.4c-1.1,1.1-1.1,3,0,4.1c0.6,0.6,1.3,0.9,2.1,0.9s1.5-0.3,2.1-0.9l0.4-0.4
		c1.1,0.6,2.2,1.1,3.4,1.4v0.5c0,1.6,1.3,2.9,2.9,2.9c1.6,0,2.9-1.3,2.9-2.9v-0.5c1.2-0.3,2.4-0.8,3.4-1.4l0.4,0.4
		c0.6,0.6,1.3,0.9,2.1,0.9s1.5-0.3,2.1-0.9c1.1-1.1,1.1-3,0-4.1l-0.4-0.4c0.6-1.1,1.1-2.2,1.4-3.4h0.5c1.6,0,2.9-1.3,2.9-2.9
		C315.3,55.8,314,54.5,312.4,54.5L312.4,54.5z M300,63.8c-3.5,0-6.4-2.9-6.4-6.4c0-3.5,2.9-6.4,6.4-6.4c3.5,0,6.4,2.9,6.4,6.4
		C306.4,60.9,303.5,63.8,300,63.8L300,63.8z M300,63.8"/>
	<path fill="#4F4F4F" d="M307.5,82.4c-0.8-1.4-2.6-1.9-4-1.1l-0.6,0.3c-0.9-0.8-2-1.4-3.1-1.8v-0.7c0-1.6-1.3-2.9-2.9-2.9
		c-1.6,0-2.9,1.3-2.9,2.9v0.7c-1.2,0.4-2.2,1-3.1,1.8l-0.6-0.3c-1.4-0.8-3.2-0.3-4,1.1c-0.8,1.4-0.3,3.2,1.1,4l0.6,0.3
		c-0.1,0.6-0.2,1.2-0.2,1.8c0,0.6,0.1,1.2,0.2,1.8l-0.6,0.3c-1.4,0.8-1.9,2.6-1.1,4c0.5,0.9,1.5,1.5,2.5,1.5c0.5,0,1-0.1,1.5-0.4
		l0.6-0.3c0.9,0.8,2,1.4,3.1,1.8v0.7c0,1.6,1.3,2.9,2.9,2.9c1.6,0,2.9-1.3,2.9-2.9v-0.7c1.2-0.4,2.2-1,3.1-1.8l0.6,0.3
		c0.5,0.3,1,0.4,1.5,0.4c1,0,2-0.5,2.5-1.5c0.8-1.4,0.3-3.2-1.1-4l-0.6-0.3c0.1-0.6,0.2-1.2,0.2-1.8c0-0.6-0.1-1.2-0.2-1.8l0.6-0.3
		C307.8,85.6,308.3,83.8,307.5,82.4L307.5,82.4z M293.5,88.6c0-1.8,1.5-3.3,3.3-3.3c1.8,0,3.3,1.5,3.3,3.3c0,1.8-1.5,3.3-3.3,3.3
		C295,91.9,293.5,90.4,293.5,88.6L293.5,88.6z M293.5,88.6"/>
</g>
<path fill="#4F4F4F" d="M186,158.9v-11.8c0-4.8-2.8-9.1-7.2-11.1c-14.3-6.2-27.2-16.6-36.3-29.2c-9.8-13.4-14.9-28.8-14.9-44.4
	c0-4,0.3-8.1,0.9-12c0.7-4.5-1.2-9-4.8-11.6L89.1,13.7c-2-1.4-4.3-2-6.7-1.6c-2.4,0.4-4.5,1.7-5.9,3.6L30.2,79.1
	c-1-0.4-2.1-0.5-3.1-0.4c-1.6,0.2-3,1.1-3.9,2.4L12.2,96.1c-1.9,2.7-1.4,6.4,1.3,8.3l104.9,76.5c6.9,5,15,7.7,23.5,7.7h41.2
	c3.3,0,6-2.7,6-6v-18.5C189.1,161.9,187.8,160,186,158.9L186,158.9z M81.1,19.1c0.5-0.7,1.3-1.2,2.1-1.3c0.9-0.1,1.7,0.1,2.4,0.6
	l34.5,25.2c1.9,1.4,2.9,3.7,2.5,6.1c-0.7,4.3-1,8.6-1,12.9c0,3.3,0.2,6.6,0.6,9.9l-9.1,3c-1.5,0.5-2.3,2.1-1.8,3.6
	c0.4,1.2,1.5,2,2.7,2c0.3,0,0.6,0,0.9-0.2l8.2-2.7c0.5,2.2,1,4.5,1.7,6.7l-8.6,2.9c-1.5,0.5-2.3,2.1-1.8,3.6c0.4,1.2,1.5,2,2.7,2
	c0.3,0,0.6,0,0.9-0.1l8.7-2.9c0.8,2.1,1.7,4.3,2.7,6.3l-8.9,3c-1.5,0.5-2.3,2.1-1.8,3.6c0.4,1.2,1.5,2,2.7,2c0.3,0,0.6,0,0.9-0.1
	l9.8-3.3c1.2,2,2.4,4,3.7,6l-9.9,3.3c-1.5,0.5-2.3,2.1-1.8,3.6c0.4,1.2,1.5,2,2.7,2c0.3,0,0.6,0,0.9-0.1l10.6-3.5
	c0.3-0.1,0.6-0.3,0.9-0.5c9.6,12.3,22.6,22.5,36.9,28.7c2.3,1,3.8,3.3,3.8,5.8v11h-38.3c-2,0-3.9-0.6-5.6-1.8l-101.4-74L81.1,19.1z
	 M183.3,182.6c0,0.1-0.1,0.2-0.2,0.2h-41.2c-7.3,0-14.2-2.3-20.1-6.5L16.9,99.7c-0.1-0.1-0.1-0.2,0-0.3l10.9-14.9c0,0,0-0.1,0.1-0.1
	c0,0,0,0,0,0c0.1,0,0.1,0,0.1,0L132.9,161c2.6,1.9,5.7,2.9,9,2.9h41.2c0.1,0,0.2,0.1,0.2,0.2V182.6z M183.3,182.6"/>
</svg>
