<svg xmlns="http://www.w3.org/2000/svg" viewBox="0 0 200 200" enable-background="new 0 0 200 200"><path fill="#4F4F4F" stroke="#4F4F4F" stroke-miterlimit="10" d="M167.9 101.4l-10.6-21.3c-.9-1.9-1.2-4.1-.8-6.1l2.3-11.4c0-.2.1-.4.1-.6 0-29.1-23.7-52.8-52.8-52.8H93.5c-32.6 0-59 26.5-59 59 0 16.3 3.9 29.8 7.7 42.8 3.9 13.4 7.9 27.2 7.9 44.5 0 1 .5 2 1.4 2.5l50.1 30.6c1.1.7 2.4 1 3.6 1 1.2 0 2.3-.3 3.4-.9 2.2-1.2 3.5-3.5 3.5-6v-11.6c0-8.7 7.1-15.8 15.8-15.8h10.3c7.9 0 14.7-6.2 15.3-14.1l2-24.2 7.6-3c2.4-.9 4.3-2.9 5.2-5.2.9-2.4.8-5.1-.4-7.4zm-5 5.3c-.3.9-1 1.6-1.9 1.9l-9.3 3.7c-1 .4-1.7 1.4-1.8 2.5l-2.2 26c-.4 4.9-4.6 8.8-9.5 8.8h-10.3c-11.9 0-21.6 9.7-21.6 21.6v11.6c0 .5-.3.8-.5.9-.2.1-.6.3-1.1 0L56 154c-.2-17.4-4.2-31.1-8.1-44.5-3.8-13.2-7.5-25.7-7.5-41.2 0-29.3 23.9-53.2 53.2-53.2H106c25.8 0 46.8 20.9 47 46.7l-2.2 11.1c-.7 3.3-.2 6.9 1.3 9.9l10.6 21.3c.4.8.5 1.7.2 2.6zm0 0"/><path fill="#4F4F4F" d="M102.9 65c1.6 0 2.9-1.3 2.9-2.9 0-1.6-1.3-2.9-2.9-2.9h-3.5c-.5-2.9-1.6-5.6-3.3-7.9l2.5-2.5c1.1-1.1 1.1-3 0-4.1-1.1-1.1-3-1.1-4.1 0L92 47.2c-2.3-1.7-5-2.8-7.9-3.3v-3.5c0-1.6-1.3-2.9-2.9-2.9-1.6 0-2.9 1.3-2.9 2.9v3.5c-2.9.5-5.6 1.6-7.9 3.3l-2.5-2.5c-1.1-1.1-3-1.1-4.1 0-1.1 1.1-1.1 3 0 4.1l2.5 2.5c-1.7 2.3-2.8 5-3.3 7.9h-3.5c-1.6 0-2.9 1.3-2.9 2.9 0 1.6 1.3 2.9 2.9 2.9H63c.5 2.9 1.6 5.6 3.3 7.9l-2.5 2.5c-1.1 1.1-1.1 3 0 4.1.6.6 1.3.9 2.1.9.7 0 1.5-.3 2.1-.9l2.5-2.5c2.3 1.7 5 2.8 7.9 3.3v3.5c0 1.6 1.3 2.9 2.9 2.9 1.6 0 2.9-1.3 2.9-2.9v-3.5c2.9-.5 5.6-1.6 7.9-3.3l2.5 2.5c.6.6 1.3.9 2.1.9.7 0 1.5-.3 2.1-.9 1.1-1.1 1.1-3 0-4.1l-2.5-2.5c1.7-2.3 2.8-5 3.3-7.9h3.3zm-21.8 9.7c-7 0-12.7-5.7-12.7-12.7 0-7 5.7-12.7 12.7-12.7 7 0 12.7 5.7 12.7 12.7-.1 7-5.7 12.7-12.7 12.7zm0 0"/><path fill="#4F4F4F" stroke="#4F4F4F" stroke-miterlimit="10" d="M81.1 56.4c-3.1 0-5.6 2.5-5.6 5.6 0 3.1 2.5 5.7 5.6 5.7 3.1 0 5.7-2.5 5.7-5.7-.1-3.1-2.6-5.6-5.7-5.6zm0 5.8c-.1 0-.2-.1-.2-.2s.1-.2.2-.2.2.1.2.2c0 .2-.1.2-.2.2zm0 0"/><path fill="#4F4F4F" d="M131 46.7h-.5c-.3-1.2-.8-2.4-1.4-3.4l.4-.4c1.1-1.1 1.1-3 0-4.1-1.1-1.1-3-1.1-4.1 0l-.4.4c-1.1-.6-2.2-1.1-3.4-1.4v-.5c0-1.6-1.3-2.9-2.9-2.9-1.6 0-2.9 1.3-2.9 2.9v.5c-1.2.3-2.4.8-3.4 1.4l-.4-.4c-1.1-1.1-3-1.1-4.1 0-1.1 1.1-1.1 3 0 4.1l.4.4c-.6 1.1-1.1 2.2-1.4 3.4h-.9c-1.6 0-2.9 1.3-2.9 2.9 0 1.6 1.3 2.9 2.9 2.9h.5c.3 1.2.8 2.4 1.4 3.4l-.4.4c-1.1 1.1-1.1 3 0 4.1.6.6 1.3.9 2.1.9.7 0 1.5-.3 2.1-.9l.4-.4c1.1.6 2.2 1.1 3.4 1.4v.6c0 1.6 1.3 2.9 2.9 2.9 1.6 0 2.9-1.3 2.9-2.9v-.5c1.2-.3 2.4-.8 3.4-1.4l.4.4c.6.6 1.3.9 2.1.9.7 0 1.5-.3 2.1-.9 1.1-1.1 1.1-3 0-4.1l-.4-.4c.6-1.1 1.1-2.2 1.4-3.4h.5c1.6 0 2.9-1.3 2.9-2.9.2-1.7-1.1-3-2.7-3zM118.5 56c-3.5 0-6.4-2.9-6.4-6.4 0-3.5 2.9-6.4 6.4-6.4 3.5 0 6.4 2.9 6.4 6.4 0 3.5-2.9 6.4-6.4 6.4zm0 0M126 74.6c-.8-1.4-2.6-1.9-4-1.1l-.6.3c-.9-.8-2-1.4-3.1-1.8v-.7c0-1.6-1.3-2.9-2.9-2.9-1.6 0-2.9 1.3-2.9 2.9v.7c-1.2.4-2.2 1-3.1 1.8l-.6-.3c-1.4-.8-3.2-.3-4 1.1-.8 1.4-.3 3.2 1.1 4l.6.3c-.1.6-.2 1.2-.2 1.8 0 .6.1 1.2.2 1.8l-.6.3c-1.4.8-1.9 2.6-1.1 4 .5.9 1.5 1.5 2.5 1.5.5 0 1-.1 1.5-.4l.6-.3c.9.8 2 1.4 3.1 1.8v.7c0 1.6 1.3 2.9 2.9 2.9 1.6 0 2.9-1.3 2.9-2.9v-.7c1.2-.4 2.2-1 3.1-1.8l.6.4c.5.3 1 .4 1.5.4 1 0 2-.5 2.5-1.5.8-1.4.3-3.2-1.1-4l-.6-.3c.1-.6.2-1.2.2-1.8 0-.6-.1-1.2-.2-1.8l.6-.3c1.4-.9 1.9-2.7 1.1-4.1zm-13.9 6.2c0-1.8 1.5-3.3 3.3-3.3 1.8 0 3.3 1.5 3.3 3.3 0 1.8-1.5 3.3-3.3 3.3-1.9 0-3.3-1.5-3.3-3.3zm0 0"/></svg>