<?xml version="1.0" encoding="utf-8"?>
<!-- Generator: Adobe Illustrator 18.0.0, SVG Export Plug-In . SVG Version: 6.00 Build 0)  -->
<!DOCTYPE svg PUBLIC "-//W3C//DTD SVG 1.1//EN" "http://www.w3.org/Graphics/SVG/1.1/DTD/svg11.dtd">
<svg version="1.1" id="Capa_1" xmlns="http://www.w3.org/2000/svg" xmlns:xlink="http://www.w3.org/1999/xlink" x="0px" y="0px"
	 viewBox="0 0 512 512" enable-background="new 0 0 512 512" xml:space="preserve">
<g>
	<g>
		<path fill="none" stroke="#4F4F4F" stroke-width="13" stroke-miterlimit="10" d="M256,132.6c-65.4,0-118.4,50.8-118.4,113.5
			c0,74.4,51.7,93.4,51.7,136.7c0,10.7,8.2,20.7,20.5,28c-2.6,2.1-4,4.5-4,6.9c0,3.3,2.6,6.4,7,9c-4.2,2.6-6.6,5.6-6.6,8.8
			c0,3.2,2.5,6.2,6.8,8.8c-4.4,2.6-6.9,5.7-6.9,8.9c0,4,3.7,7.6,10,10.6c-2.4,2.2-3.8,4.6-3.8,7.2c0,7.6,11.8,14,28.4,16.6
			c2.9,5.4,8.8,9.2,15.7,9.2c6.9,0,12.8-3.7,15.7-9.1c16.8-2.5,28.7-9,28.7-16.6c0-2.5-1.3-4.9-3.7-7.1c6.4-3,10.2-6.7,10.2-10.7
			c0-3.2-2.5-6.2-6.8-8.8c4.4-2.6,6.9-5.7,6.9-8.9c0-3.3-2.6-6.4-7-9c4.2-2.6,6.6-5.6,6.6-8.8c0-2.6-1.5-5-4.3-7.1
			c12.1-7.3,20.1-17.2,20.1-27.8c0-43.3,51.6-62.3,51.6-136.7C374.4,183.4,321.4,132.6,256,132.6z M317.8,316.2
			c-11.8,17.3-25.1,36.9-26,63.8c-4.1,4.5-18.5,11.9-35.8,11.9c-17.3,0-31.8-7.3-35.9-11.9c-0.8-26.9-14.2-46.5-26-63.8
			c-13.2-19.3-25.6-37.6-25.6-70.2c0-45.5,39.2-82.5,87.4-82.5c48.2,0,87.5,37,87.5,82.5C343.5,278.7,331,296.9,317.8,316.2z"/>
		<path fill="none" stroke="#4F4F4F" stroke-width="13" stroke-miterlimit="10" d="M256,92.8c8.5,0,15.5-9.2,15.5-20.5V35.8
			c0-11.3-7-20.5-15.5-20.5c-8.5,0-15.5,9.2-15.5,20.5v36.5C240.5,83.6,247.5,92.8,256,92.8z"/>
		<path fill="none" stroke="#4F4F4F" stroke-width="13" stroke-miterlimit="10" d="M176.6,114c7.4-4.3,8.8-15.7,3.2-25.5l-18.2-31.6
			c-5.6-9.8-16.3-14.3-23.7-10c-7.4,4.3-8.8,15.7-3.2,25.5l18.3,31.6C158.6,113.8,169.2,118.3,176.6,114z"/>
		<path fill="none" stroke="#4F4F4F" stroke-width="13" stroke-miterlimit="10" d="M108.4,148.5l-31.6-18.3
			c-9.8-5.6-21.2-4.2-25.5,3.2c-4.3,7.4,0.2,18,10,23.7L93,175.4c9.8,5.6,21.2,4.2,25.5-3.2C122.7,164.8,118.2,154.1,108.4,148.5z"
			/>
		<path fill="none" stroke="#4F4F4F" stroke-width="13" stroke-miterlimit="10" d="M450.7,346.1l-31.6-18.2
			c-9.8-5.6-21.2-4.2-25.5,3.2c-4.3,7.4,0.2,18,10,23.7l31.6,18.3c9.8,5.6,21.2,4.2,25.5-3.2C464.9,362.4,460.4,351.7,450.7,346.1z"
			/>
		<path fill="none" stroke="#4F4F4F" stroke-width="13" stroke-miterlimit="10" d="M97.2,251.6c0-8.5-9.2-15.5-20.5-15.5H40.2
			c-11.3,0-20.5,7-20.5,15.5c0,8.5,9.2,15.5,20.5,15.5h36.5C87.9,267.1,97.2,260.1,97.2,251.6z"/>
		<path fill="none" stroke="#4F4F4F" stroke-width="13" stroke-miterlimit="10" d="M471.8,236.1h-36.5c-11.3,0-20.5,7-20.5,15.5
			c0,8.5,9.2,15.5,20.5,15.5h36.5c11.3,0,20.5-7,20.5-15.5S483.1,236.1,471.8,236.1z"/>
		<path fill="none" stroke="#4F4F4F" stroke-width="13" stroke-miterlimit="10" d="M92.9,327.8l-31.6,18.2
			c-9.8,5.6-14.3,16.3-10,23.7c4.3,7.4,15.7,8.8,25.5,3.2l31.6-18.3c9.8-5.6,14.3-16.3,10-23.7C114.2,323.6,102.7,322.2,92.9,327.8z
			"/>
		<path fill="none" stroke="#4F4F4F" stroke-width="13" stroke-miterlimit="10" d="M419.1,175.4l31.6-18.3
			c9.8-5.6,14.3-16.3,10-23.7c-4.3-7.4-15.7-8.8-25.5-3.2l-31.6,18.3c-9.8,5.6-14.3,16.3-10,23.7C397.8,179.6,409.3,181,419.1,175.4
			z"/>
		<path fill="none" stroke="#4F4F4F" stroke-width="13" stroke-miterlimit="10" d="M374.2,46.9c-7.4-4.3-18,0.2-23.7,10l-18.2,31.6
			c-5.6,9.8-4.2,21.2,3.2,25.5c7.4,4.3,18-0.2,23.7-10l18.3-31.6C383,62.7,381.5,51.2,374.2,46.9z"/>
	</g>
</g>
</svg>
