<?xml version="1.0" encoding="utf-8"?>
<!-- Generator: Adobe Illustrator 18.0.0, SVG Export Plug-In . SVG Version: 6.00 Build 0)  -->
<!DOCTYPE svg PUBLIC "-//W3C//DTD SVG 1.1//EN" "http://www.w3.org/Graphics/SVG/1.1/DTD/svg11.dtd">
<svg version="1.1" id="Слой_1" xmlns="http://www.w3.org/2000/svg" xmlns:xlink="http://www.w3.org/1999/xlink" x="0px" y="0px"
	 viewBox="0 0 200 200" enable-background="new 0 0 200 200" xml:space="preserve">
<g>
	<g>
		<path fill="none" stroke="#4F4F4F" stroke-width="7" stroke-miterlimit="10" d="M303.8,65.2c1.5,9.9,9.2,22.6,21.8,27.1
			c5.2,1.8,10.8,1.8,16,0c12.4-4.5,20.3-17.1,21.9-27c1.7-0.1,3.9-2.5,6.2-10.8c3.2-11.4-0.2-13.1-3.1-12.9c0.6-1.6,1-3.2,1.3-4.7
			c4.9-29.7-9.7-30.7-9.7-30.7s-2.4-4.7-8.8-8.2c-4.3-2.5-10.2-4.5-18-3.8c-2.5,0.1-4.9,0.6-7.2,1.4l0,0c-2.9,1-5.5,2.4-7.9,4.1
			c-2.9,1.8-5.7,4.1-8.1,6.7c-3.9,4-7.3,9.1-8.8,15.4c-1.3,4.8-1,9.7,0.1,15.1l0,0c0.3,1.6,0.7,3.1,1.3,4.7
			c-2.9-0.3-6.4,1.4-3.1,12.9C299.9,62.8,302.1,65.1,303.8,65.2z"/>
		<path fill="none" stroke="#4F4F4F" stroke-width="7" stroke-miterlimit="10" d="M391,104.1c-17.8-4.5-32.2-14.7-32.2-14.7
			l-11.3,35.6l-2.1,6.7l0-0.1l-1.8,5.7l-5.9-16.9c14.6-20.4-3-20.2-3.9-20.1c-1,0-18.5-0.2-3.9,20.1l-5.9,16.9l-1.8-5.7l0,0.1
			l-2.1-6.7l-11.3-35.6c0,0-14.4,10.2-32.2,14.7c-13.2,3.4-13.9,18.7-13.4,26.2c0,0,0.8,10.3,1.5,14.8c0,0,25.9,16.8,69.2,16.8
			c43.3,0,69.2-16.8,69.2-16.8c0.8-4.5,1.5-14.8,1.5-14.8C404.9,122.8,404.3,107.5,391,104.1z"/>
	</g>
</g>
<g>
	<g id="Layer_1_33_">
		<g>
			<path fill="none" stroke="#4F4F4F" stroke-width="6" stroke-miterlimit="10" d="M58.9,123.6H39.2c-3.6,0-6.6,2.9-6.6,6.6v29.6
				c0,3.6,2.9,6.6,6.6,6.6h19.7c3.6,0,6.6-2.9,6.6-6.6v-29.6C65.5,126.5,62.5,123.6,58.9,123.6z"/>
			<path fill="none" stroke="#4F4F4F" stroke-width="6" stroke-miterlimit="10" d="M109.8,100.6H90.1c-3.6,0-6.6,2.9-6.6,6.6v52.6
				c0,3.6,2.9,6.6,6.6,6.6h19.7c3.6,0,6.6-2.9,6.6-6.6v-52.6C116.4,103.5,113.5,100.6,109.8,100.6z"/>
			<path fill="none" stroke="#4F4F4F" stroke-width="6" stroke-miterlimit="10" d="M160.8,74.3h-19.7c-3.6,0-6.6,2.9-6.6,6.6v78.9
				c0,3.6,2.9,6.6,6.6,6.6h19.7c3.6,0,6.6-2.9,6.6-6.6V80.9C167.4,77.2,164.4,74.3,160.8,74.3z"/>
			<circle fill="#4F4F4F" cx="150.9" cy="26.4" r="4.7"/>
			<path fill="#4F4F4F" d="M169.5,24.9c-0.9-1.2-2.5-1.4-3.7-0.5l-10.7,8h-1.7c-0.7,0-1.4,0.3-1.8,0.8l1.2,9l-1.9,1.6l-1.9-1.6
				l1.2-9c-0.5-0.5-1.1-0.8-1.8-0.8h-1.7l-10.7-8c-1.2-0.9-2.8-0.6-3.7,0.5c-0.9,1.2-0.6,2.8,0.5,3.7l11.4,8.6
				c0.4,0.3,1,0.5,1.5,0.5v11.9l-4.9,17c-0.4,1.4,0.4,2.9,1.8,3.3c0.2,0.1,0.5,0.1,0.7,0.1c1.1,0,2.2-0.8,2.5-1.9l4.9-17.2l4.9,17.2
				c0.3,1.2,1.4,1.9,2.5,1.9c0.2,0,0.5,0,0.7-0.1c1.4-0.4,2.2-1.9,1.8-3.3l-4.9-17V37.6c0.5,0,1.1-0.2,1.5-0.5l11.4-8.6
				C170.2,27.7,170.4,26,169.5,24.9z"/>
		</g>
	</g>
</g>
</svg>
