<?xml version="1.0" encoding="utf-8"?>
<!-- Generator: Adobe Illustrator 18.0.0, SVG Export Plug-In . SVG Version: 6.00 Build 0)  -->
<!DOCTYPE svg PUBLIC "-//W3C//DTD SVG 1.1//EN" "http://www.w3.org/Graphics/SVG/1.1/DTD/svg11.dtd">
<svg version="1.1" id="Слой_1" xmlns="http://www.w3.org/2000/svg" xmlns:xlink="http://www.w3.org/1999/xlink" x="0px" y="0px"
	 viewBox="0 0 200 200" enable-background="new 0 0 200 200" xml:space="preserve">
<g>
	<g>
		<path fill="none" stroke="#4F4F4F" stroke-width="7" stroke-miterlimit="10" d="M303.8,65.2c1.5,9.9,9.2,22.6,21.8,27.1
			c5.2,1.8,10.8,1.8,16,0c12.4-4.5,20.3-17.1,21.9-27c1.7-0.1,3.9-2.5,6.2-10.8c3.2-11.4-0.2-13.1-3.1-12.9c0.6-1.6,1-3.2,1.3-4.7
			c4.9-29.7-9.7-30.7-9.7-30.7s-2.4-4.7-8.8-8.2c-4.3-2.5-10.2-4.5-18-3.8c-2.5,0.1-4.9,0.6-7.2,1.4l0,0c-2.9,1-5.5,2.4-7.9,4.1
			c-2.9,1.8-5.7,4.1-8.1,6.7c-3.9,4-7.3,9.1-8.8,15.4c-1.3,4.8-1,9.7,0.1,15.1l0,0c0.3,1.6,0.7,3.1,1.3,4.7
			c-2.9-0.3-6.4,1.4-3.1,12.9C299.9,62.8,302.1,65.1,303.8,65.2z"/>
		<path fill="none" stroke="#4F4F4F" stroke-width="7" stroke-miterlimit="10" d="M391,104.1c-17.8-4.5-32.2-14.7-32.2-14.7
			l-11.3,35.6l-2.1,6.7l0-0.1l-1.8,5.7l-5.9-16.9c14.6-20.4-3-20.2-3.9-20.1c-1,0-18.5-0.2-3.9,20.1l-5.9,16.9l-1.8-5.7l0,0.1
			l-2.1-6.7l-11.3-35.6c0,0-14.4,10.2-32.2,14.7c-13.2,3.4-13.9,18.7-13.4,26.2c0,0,0.8,10.3,1.5,14.8c0,0,25.9,16.8,69.2,16.8
			c43.3,0,69.2-16.8,69.2-16.8c0.8-4.5,1.5-14.8,1.5-14.8C404.9,122.8,404.3,107.5,391,104.1z"/>
	</g>
</g>
<path fill="#656565" d="M70.7,78.5c-6,0-10.8,4.9-10.8,10.8c0,6,4.9,10.8,10.8,10.8c6,0,10.8-4.9,10.8-10.8
	C81.5,83.4,76.7,78.5,70.7,78.5L70.7,78.5z M70.7,94c-2.5,0-4.6-2.1-4.6-4.6c0-2.5,2.1-4.6,4.6-4.6c2.5,0,4.6,2.1,4.6,4.6
	C75.3,91.9,73.2,94,70.7,94L70.7,94z M70.7,94"/>
<path fill="#656565" d="M120.5,78.5c-6,0-10.8,4.9-10.8,10.8c0,6,4.9,10.8,10.8,10.8c6,0,10.8-4.9,10.8-10.8
	C131.3,83.4,126.4,78.5,120.5,78.5L120.5,78.5z M120.5,94c-2.5,0-4.6-2.1-4.6-4.6c0-2.5,2.1-4.6,4.6-4.6c2.5,0,4.6,2.1,4.6,4.6
	C125.1,91.9,123,94,120.5,94L120.5,94z M120.5,94"/>
<path fill="#656565" d="M162,129.2c0-18,10-24.3,10.4-24.6c1.5-0.9,2-2.8,1.1-4.3c-0.9-1.5-2.8-2-4.3-1.1
	c-0.6,0.3-13.4,8.2-13.4,29.9c0,12.3,4.2,20.2,7.6,26.6c2.4,4.5,4.3,8.1,4.3,12.2c0,2.9-0.6,5.1-1.8,6.2c-1.2,1.1-2.8,0.9-2.9,0.9
	c-0.2,0-0.3,0-0.5,0H151c1.3-2.1,2.1-4.5,2.1-7.2v-140c0-1.4-0.9-2.6-2.3-3c-1.3-0.4-2.8,0.2-3.5,1.4l-15.2,25.1
	c-4.7-0.1-18.3-0.2-59.3-0.2c-8.7,0-13,0-15.2,0l-14-26.9c-0.7-1.3-2.1-1.9-3.5-1.6c-1.4,0.3-2.4,1.6-2.4,3v142.1
	c0,7.4,6,13.4,13.4,13.4h110.9c0.2,0,0.5,0,0.9,0c1.5,0,4.2-0.3,6.6-2.4c2.7-2.3,4.1-6,4.1-10.9c0-5.7-2.5-10.3-5.1-15.2
	C165.6,146.8,162,140,162,129.2L162,129.2z M98.8,175.1H51.4c-4,0-7.2-3.2-7.2-7.2V38.5l9,17.3c0.6,1.1,1.8,1.7,3,1.7
	c0.6,0,5.3,0,16.8,0c23.9,0,58.3,0.1,60.7,0.2c1.2,0.1,2.4-0.4,3-1.5L147,39.1v128.8c0,4-3.2,7.2-7.2,7.2H98.8z M98.8,175.1"/>
<path fill="#656565" d="M101,106.4H90.1c-1.7,0-3.1,1.4-3.1,3.1c0,1.7,1.4,3.1,3.1,3.1h2.4l-0.2,4c-0.1,1.7,1.2,3.2,2.9,3.3
	c0.1,0,0.1,0,0.2,0c1.6,0,3-1.3,3.1-2.9l0.3-4.3h2.3c1.7,0,3.1-1.4,3.1-3.1C104.1,107.8,102.7,106.4,101,106.4L101,106.4z
	 M101,106.4"/>
<g>
	<g>
		<g>
			<path fill="#656565" d="M48.9,59.7c-0.5,0.1-1.1-0.2-1.2-0.7l-2.1-7.8c-0.1-0.5,0.2-1.1,0.7-1.2l0.6-0.2c0.5-0.1,1.1,0.2,1.2,0.7
				l2.1,7.8c0.1,0.5-0.2,1.1-0.7,1.2L48.9,59.7z"/>
		</g>
	</g>
</g>
<g>
	<g>
		<g>
			<path fill="#656565" d="M142.5,59.7c0.5,0.1,1.1-0.2,1.2-0.7l2.1-7.8c0.1-0.5-0.2-1.1-0.7-1.2l-0.6-0.2c-0.5-0.1-1.1,0.2-1.2,0.7
				l-2.1,7.8c-0.1,0.5,0.2,1.1,0.7,1.2L142.5,59.7z"/>
		</g>
	</g>
</g>
</svg>
