<?xml version="1.0" encoding="utf-8"?>
<!-- Generator: Adobe Illustrator 18.0.0, SVG Export Plug-In . SVG Version: 6.00 Build 0)  -->
<!DOCTYPE svg PUBLIC "-//W3C//DTD SVG 1.1//EN" "http://www.w3.org/Graphics/SVG/1.1/DTD/svg11.dtd">
<svg version="1.1" id="Слой_1" xmlns="http://www.w3.org/2000/svg" xmlns:xlink="http://www.w3.org/1999/xlink" x="0px" y="0px"
	 viewBox="0 0 200 200" enable-background="new 0 0 200 200" xml:space="preserve">
<path fill="#4F4F4F" d="M178.6,66l-33.5-34.9c-2.1-2.2-5-3.4-7.9-3.4s-5.8,1.2-7.9,3.4l-7.9,8.2c-1.2,1.3-2.1,2.7-2.6,4.4l-36.8-6.9
	l0,0c-16.6-3.4-32.7,7.8-36,25.1l-1.7,8.8c-2,9.7,4,19.2,13.4,21.1s18.4-4.4,20.2-14l1-5.4l16.5,1.5l43.1,44.8l7.9,8.2
	c1.6,1.6,1.6,4.4,0,6s-4.2,1.6-5.8,0l-20.9-21.8c-1.5-1.5-3.8-1.5-5.3,0c-1.5,1.5-1.5,4,0,5.5l20.9,21.8c0.8,0.8,1.2,1.8,1.2,3
	c0,1.1-0.4,2.2-1.2,3c-1.6,1.6-4.2,1.6-5.8,0l-20.9-21.8c-1.5-1.5-3.8-1.5-5.3,0s-1.5,4,0,5.5l20.9,21.8c1.6,1.6,1.6,4.4,0,6
	c-0.8,0.8-1.7,1.3-2.9,1.3c-1,0-2.1-0.5-2.9-1.3l-20.9-21.8c-1.5-1.5-3.8-1.5-5.3,0s-1.5,4,0,5.5l20.9,21.8c1.6,1.6,1.6,4.4,0,6
	s-4.2,1.6-5.8,0L23.6,80c-1.5-1.5-3.8-1.5-5.3,0s-1.5,4,0,5.5l20.4,21.2l-5.8,6.1c-1.9,2-3,4.6-3,7.4s1,5.4,3,7.4l1.9,2
	c1.7,1.7,3.8,2.8,6.2,3.1c0.3,2.5,1.2,4.7,3,6.4l1.9,2c1.7,1.8,3.9,2.8,6.2,3c0.3,2.5,1.2,4.7,3,6.4l1.9,2c1.7,1.7,3.8,2.8,6.2,3.1
	c0.3,2.5,1.2,4.7,3,6.4l1.9,2c2,2.1,4.6,3.1,7.2,3.1c2.6,0,5.2-1,7.2-3.1l5.8-6.1l14.1,14.6c2.2,2.3,5.1,3.5,8.1,3.5
	s5.9-1.3,8.1-3.5c2.1-2.2,3.2-5,3.3-8c2.9-0.1,5.6-1.4,7.7-3.4c2.1-2.2,3.2-5.1,3.3-8c2.8-0.1,5.6-1.3,7.7-3.4
	c2.1-2.2,3.2-5.1,3.3-8c2.8-0.1,5.6-1.3,7.7-3.4c4.5-4.7,4.5-12.3,0-17l-5.1-5.4l19.1-19.9l13.2-13.7C183,78,183,70.7,178.6,66
	L178.6,66z M38.2,122.3c-1-1.1-1-2.9,0-4l5.5-5.7l5.8,6l-5.5,5.7c-1,1.1-2.8,1.1-3.8,0L38.2,122.3z M49.3,133.8c-1-1.1-1-2.9,0-4
	l5.5-5.7l5.8,6l-5.5,5.7c-1,1.1-2.8,1.1-3.8,0L49.3,133.8z M60.3,145.3c-0.5-0.5-0.8-1.3-0.8-2s0.3-1.5,0.8-2l5.5-5.7l5.8,6
	l-5.5,5.7c-1,1.1-2.8,1.1-3.8,0L60.3,145.3z M77,158.7c-1,1.1-2.8,1.1-3.8,0l-1.9-2c-1-1.1-1-2.9,0-4l5.5-5.7l5.8,6L77,158.7z
	 M141.2,110.5L99.7,67.4c-0.6-0.6-1.5-1-2.4-1.1l-21.2-1.9c-0.1,0-0.3,0-0.3,0c-1.7,0-3.3,1.3-3.7,3.1l-1.7,8.8
	c-1,5.4-6.2,9.1-11.5,7.9c-2.5-0.5-4.7-2.1-6.2-4.4c-1.5-2.3-1.9-5-1.4-7.6l1.7-8.8c2.6-13.1,14.8-21.5,27.4-18.9h0.1l36.3,6.7
	l40.7,42.3L141.2,110.5z M173.3,77.1l-10.6,11l-36.1-37.6c-0.7-0.7-1.1-1.7-1.1-2.7s0.3-2,1.1-2.7l7.9-8.2c0.7-0.7,1.7-1.2,2.6-1.2
	s1.9,0.4,2.6,1.2l33.5,34.9c0.7,0.7,1.1,1.7,1.1,2.7C174.5,75.4,174,76.4,173.3,77.1L173.3,77.1z"/>
<g>
	<g>
		<path fill="none" stroke="#4F4F4F" stroke-width="7" stroke-miterlimit="10" d="M303.8,65.2c1.5,9.9,9.2,22.6,21.8,27.1
			c5.2,1.8,10.8,1.8,16,0c12.4-4.5,20.3-17.1,21.9-27c1.7-0.1,3.9-2.5,6.2-10.8c3.2-11.4-0.2-13.1-3.1-12.9c0.6-1.6,1-3.2,1.3-4.7
			c4.9-29.7-9.7-30.7-9.7-30.7s-2.4-4.7-8.8-8.2c-4.3-2.5-10.2-4.5-18-3.8c-2.5,0.1-4.9,0.6-7.2,1.4l0,0c-2.9,1-5.5,2.4-7.9,4.1
			c-2.9,1.8-5.7,4.1-8.1,6.7c-3.9,4-7.3,9.1-8.8,15.4c-1.3,4.8-1,9.7,0.1,15.1l0,0c0.3,1.6,0.7,3.1,1.3,4.7
			c-2.9-0.3-6.4,1.4-3.1,12.9C299.9,62.8,302.1,65.1,303.8,65.2z"/>
		<path fill="none" stroke="#4F4F4F" stroke-width="7" stroke-miterlimit="10" d="M391,104.1c-17.8-4.5-32.2-14.7-32.2-14.7
			l-11.3,35.6l-2.1,6.7l0-0.1l-1.8,5.7l-5.9-16.9c14.6-20.4-3-20.2-3.9-20.1c-1,0-18.5-0.2-3.9,20.1l-5.9,16.9l-1.8-5.7l0,0.1
			l-2.1-6.7l-11.3-35.6c0,0-14.4,10.2-32.2,14.7c-13.2,3.4-13.9,18.7-13.4,26.2c0,0,0.8,10.3,1.5,14.8c0,0,25.9,16.8,69.2,16.8
			c43.3,0,69.2-16.8,69.2-16.8c0.8-4.5,1.5-14.8,1.5-14.8C404.9,122.8,404.3,107.5,391,104.1z"/>
	</g>
</g>
</svg>
